<?xml version="1.0" encoding="utf-8"?>
<!-- Generator: Adobe Illustrator 26.0.2, SVG Export Plug-In . SVG Version: 6.00 Build 0)  -->
<svg version="1.1" id="Layer_1" xmlns="http://www.w3.org/2000/svg" xmlns:xlink="http://www.w3.org/1999/xlink" x="0px" y="0px"
	 viewBox="0 0 576 512" style="enable-background:new 0 0 576 512;" xml:space="preserve">
<style type="text/css">
	.st0{fill:#F7F7F7;}
	.st1{opacity:0.4;fill:#F7F7F7;enable-background:new    ;}
</style>
<path class="st0" d="M160,416c0-89.7,61.4-165,144.5-186.1C329.1,265,369.9,288,416,288c9.8,0,19.4-1.9,28.7-3.9l81.8,78.9
	c31.6,30.2,49.5,72,49.5,115.8v1.2c0,17.7-14.3,32-32,32s-32-14.3-32-32v-1.2c0-26.3-10.7-51.4-29.7-69.5L416,346.1V448h32
	c17.7,0,32,14.3,32,32s-14.3,32-32,32H160C71.6,512,0,440.4,0,352V110.1C0,49.3,49.3,0,110.1,0h10.4c57.2,0,102.8,47.8,100.1,104.9
	c-2.2,48.2-38.6,87.9-86.4,94.5l-1.8,0.3c-17.5,2.4-33.7-9.8-36.1-27.3c-2.4-17.5,9.8-33.7,27.3-36.1l1.9-0.3
	c17.3-2.3,30.4-16.7,31.2-34.1c1-20.6-15.5-37.9-36.2-37.9h-10.4c-25.4,0-47,20.7-47,46.1V352c0,53,43,96,96,96L160,416z M416,256
	c-29.3,0-55.9-12.2-74.8-31.7c-8.9-9.3-16.2-20.2-22.1-32.3c-34.5-0.9-63.1-28.7-63.1-64c0-35.3,28.6-64,63.1-64
	C335.6,26.4,372.7,0,416,0s80.4,26.4,96,64c35.4,0,64,28.7,64,64c0,35.3-28.6,63.1-64,64C496.4,229.6,459.3,256,416,256z M384,64
	c-26.5,0-48,21.5-48,48c0,23.8,17.3,43.5,40,47.3v8.7c0,22.1,17.9,40,40,40s40-17.9,40-40v-8.7c22.7-3.8,40-23.5,40-47.3
	c0-26.5-21.5-48-48-48H384z"/>
<path class="st1" d="M448,64c26.5,0,48,21.5,48,48c0,23.8-17.3,43.5-40,47.3v8.7c0,22.1-17.9,40-40,40s-40-17.9-40-40v-8.7
	c-22.7-3.8-40-23.5-40-47.3c0-26.5,21.5-48,48-48H448z M384,96c-8.8,0-16,7.2-16,16s7.2,16,16,16s16-7.2,16-16S392.8,96,384,96z
	 M448,128c8.8,0,16-7.2,16-16s-7.2-16-16-16s-16,7.2-16,16S439.2,128,448,128z"/>
</svg>
